<?xml version="1.0" encoding="UTF-8"?>
<!DOCTYPE svg PUBLIC "-//W3C//DTD SVG 1.1//EN" "http://www.w3.org/Graphics/SVG/1.1/DTD/svg11.dtd">
<svg xmlns="http://www.w3.org/2000/svg" version="1.1" width="512px" height="512px" style="shape-rendering:geometricPrecision; text-rendering:geometricPrecision; image-rendering:optimizeQuality; fill-rule:evenodd; clip-rule:evenodd" xmlns:xlink="http://www.w3.org/1999/xlink">
<g><path style="opacity:0.98" fill="#00903a" d="M -0.5,131.5 C -0.5,130.167 -0.5,128.833 -0.5,127.5C 10.5906,127.837 21.5906,127.004 32.5,125C 52.2794,119.74 71.946,114.074 91.5,108C 130.034,100.311 168.367,101.311 206.5,111C 230.719,118.519 251.886,131.019 270,148.5C 277.047,156.545 283.713,164.878 290,173.5C 304.99,200.46 315.657,229.126 322,259.5C 325.641,238.906 332.641,219.572 343,201.5C 356.972,184.105 374.139,170.939 394.5,162C 415.326,153.92 435.326,144.253 454.5,133C 466.022,120.762 470.522,106.262 468,89.5C 467.148,85.8107 466.315,82.1441 465.5,78.5C 466.675,78.281 467.675,78.6143 468.5,79.5C 485.024,103.214 497.857,128.881 507,156.5C 508.582,171.454 508.915,186.454 508,201.5C 503.316,219.866 495.65,236.866 485,252.5C 479,259.833 473,267.167 467,274.5C 454.127,288.025 438.96,298.191 421.5,305C 402.713,311.029 384.046,317.362 365.5,324C 356.263,327.743 348.263,333.243 341.5,340.5C 337.758,351.532 336.592,362.865 338,374.5C 339.263,395.481 343.096,415.981 349.5,436C 349.089,437.144 348.756,438.311 348.5,439.5C 350.975,447.733 352.975,456.066 354.5,464.5C 353.325,464.719 352.325,464.386 351.5,463.5C 346.693,448.836 338.693,436.336 327.5,426C 307.063,413.303 284.73,406.637 260.5,406C 229.104,399.964 201.104,386.964 176.5,367C 161.265,352.27 147.098,336.77 134,320.5C 110.812,285.124 92.1453,247.457 78,207.5C 67.9334,185.174 53.4334,166.341 34.5,151C 23.715,142.94 12.0483,136.44 -0.5,131.5 Z M 332.5,384.5 C 290.019,270.85 212.685,190.683 100.5,144C 124.767,145.921 148.434,150.921 171.5,159C 240.813,183.644 289.313,230.144 317,298.5C 328.102,326.057 333.268,354.724 332.5,384.5 Z M 463.5,163.5 C 448.226,191.3 428.893,216.134 405.5,238C 383.768,255.396 363.601,274.563 345,295.5C 337.978,304.217 333.978,314.217 333,325.5C 331.207,315.089 329.707,304.589 328.5,294C 334.967,281.559 341.801,269.392 349,257.5C 370.526,233.295 395.026,212.795 422.5,196C 435.833,184.677 449.5,173.843 463.5,163.5 Z"/></g>
<g><path style="opacity:0.122" fill="#117133" d="M 352.5,467.5 C 353.251,466.427 354.251,466.26 355.5,467C 354.648,468.728 353.648,468.895 352.5,467.5 Z"/></g>
</svg>
